<?xml version="1.0" encoding="utf-8"?>
<!-- Generator: Adobe Illustrator 23.1.1, SVG Export Plug-In . SVG Version: 6.00 Build 0)  -->
<svg version="1.1" id="Layer_1" xmlns="http://www.w3.org/2000/svg" xmlns:xlink="http://www.w3.org/1999/xlink" x="0px" y="0px"
	 viewBox="0 0 500 500" style="enable-background:new 0 0 500 500;" xml:space="preserve">
<style type="text/css">
	.st0{fill-rule:evenodd;clip-rule:evenodd;fill:#FF0000;}
</style>
<path class="st0" d="M395.4,213.7h-27.3v-0.1h-45.4v0.1H177.3v-0.1h-45.4v0.1h-27.3c-20.1,0-36.3,16.3-36.3,36.3v181.7
	c0,20.1,16.3,36.3,36.3,36.3h290.7c20.1,0,36.3-16.3,36.3-36.3V250C431.7,229.9,415.5,213.7,395.4,213.7z M277.3,390.8
	c0,7.5-6.1,13.6-13.6,13.6h-27.3c-7.5,0-13.6-6.1-13.6-13.6l7.5-46.7c-10-6.5-16.6-17.7-16.6-30.5c0-20.1,16.3-36.3,36.3-36.3
	s36.3,16.3,36.3,36.3c0,12.8-6.6,24.1-16.6,30.5C269.7,344.1,273.3,365.6,277.3,390.8z"/>
<rect x="131.9" y="142.8" class="st0" width="45.4" height="40.8"/>
<path class="st0" d="M368.1,120.1v22.8h-45.4v-22.8c0-40.2-32.5-72.7-72.7-72.7s-72.7,32.5-72.7,72.7v22.8h-45.4v-22.8
	C131.9,54.8,184.8,2,250,2S368.1,54.8,368.1,120.1z"/>
<rect x="131.9" y="182.6" class="st0" width="45.4" height="40.8"/>
<path class="st0" d="M368.1,117.4v40.8c-3.2,2.1-10.8,6.3-21.3,6.7c-12.2,0.4-21-4.6-24.2-6.7c0-13.6,0-27.2,0-40.8H368.1z"/>
</svg>
