<?xml version="1.0" encoding="utf-8"?>
<!-- Generator: Adobe Illustrator 23.1.1, SVG Export Plug-In . SVG Version: 6.00 Build 0)  -->
<svg version="1.1" id="Layer_1" xmlns="http://www.w3.org/2000/svg" xmlns:xlink="http://www.w3.org/1999/xlink" x="0px" y="0px"
	 viewBox="0 0 500 500" style="enable-background:new 0 0 500 500;" xml:space="preserve">
<style type="text/css">
	.st0{fill-rule:evenodd;clip-rule:evenodd;fill:#009545;}
</style>
<path class="st0" d="M395.4,213.7h-27.3v-0.1h-45.4v0.1H177.3v-0.1h-45.4v0.1h-27.3c-20.1,0-36.3,16.3-36.3,36.3v181.7
	c0,20.1,16.3,36.3,36.3,36.3h290.7c20.1,0,36.3-16.3,36.3-36.3V250C431.7,229.9,415.5,213.7,395.4,213.7z M277.3,390.8
	c0,7.5-6.1,13.6-13.6,13.6h-27.3c-7.5,0-13.6-6.1-13.6-13.6l7.5-46.7c-10-6.5-16.6-17.7-16.6-30.5c0-20.1,16.3-36.3,36.3-36.3
	s36.3,16.3,36.3,36.3c0,12.8-6.6,24.1-16.6,30.5C269.7,344.1,273.3,365.6,277.3,390.8z"/>
<path class="st0" d="M368.1,150.1v63.5h-45.4v-63.5c0-40.2-32.5-72.7-72.7-72.7s-72.7,32.5-72.7,72.7v63.5h-45.4v-63.5
	C131.9,84.8,184.8,32,250,32S368.1,84.8,368.1,150.1z"/>
</svg>
