<?xml version="1.0" encoding="utf-8"?>
<!-- Generator: Adobe Illustrator 23.1.1, SVG Export Plug-In . SVG Version: 6.00 Build 0)  -->
<svg version="1.1" id="Livello_1" xmlns="http://www.w3.org/2000/svg" xmlns:xlink="http://www.w3.org/1999/xlink" x="0px" y="0px"
	 viewBox="0 0 48 48" style="enable-background:new 0 0 48 48;" xml:space="preserve">
<style type="text/css">
	.st0{fill:#F1CCA8;}
	.st1{fill:#424242;}
	.st2{fill:#784719;}
	.st3{fill:#FFFFFF;}
	.st4{fill:#D32F2F;}
	.st5{fill:#546E7A;}
</style>
<polygon class="st0" points="24,41 19,35 19,29 29,29 29,35 "/>
<g>
	<circle class="st0" cx="33" cy="23" r="2"/>
	<circle class="st0" cx="15" cy="23" r="2"/>
</g>
<path class="st0" d="M33,17c0-7.6-18-5-18,0c0,1.1,0,5.9,0,7c0,5,4,9,9,9s9-4,9-9C33,22.9,33,18.1,33,17z"/>
<path class="st1" d="M24,8c-6.1,0-10,4.9-10,11c0,0.8,0,2.3,0,2.3l2,1.7v-5l12-4l4,4v5l2-1.7c0,0,0-1.5,0-2.3c0-4-1-8-6-9l-1-2
	C27,8,24,8,24,8z"/>
<g>
	<circle class="st2" cx="28" cy="23" r="1"/>
	<circle class="st2" cx="20" cy="23" r="1"/>
</g>
<polygon class="st3" points="24,47 19,35 24,36 29,35 "/>
<polygon class="st4" points="23,39 22.3,43.5 24,47.5 25.7,43.5 25,39 26,38 24,36 22,38 "/>
<path class="st5" d="M29,35L29,35l-5,12l-5-12c0,0-11,2-11,13h32C40,37,29,35,29,35z"/>
</svg>
