<svg id="Layer_1" enable-background="new 0 0 256 256" height="512" viewBox="0 0 256 256" width="512" xmlns="http://www.w3.org/2000/svg"><path d="m200.622 99.628-83.51-48.598c-5.264-3.063-11.767-3.063-17.031 0l-83.51 48.598c-1.985 1.155-3.206 3.279-3.206 5.575v3.063 3.386l85.627 58.988c5.783 3.984 13.426 3.984 19.209 0l85.627-58.988v-3.386-3.063c0-2.296-1.221-4.42-3.206-5.575z" fill="#4671c6"/><path d="m98.992 170.64-85.627-58.988v114.278c0 3.74 3.032 6.772 6.772 6.772h176.919c3.74 0 6.772-3.032 6.772-6.772v-114.278l-85.627 58.988c-5.783 3.984-13.426 3.984-19.209 0z" fill="#a4c9ff"/><path d="m197.056 234.702h-176.919c-4.837 0-8.772-3.936-8.772-8.772v-120.727c0-2.997 1.609-5.796 4.2-7.304l83.51-48.598c5.873-3.418 13.17-3.418 19.042 0l83.51 48.598c2.591 1.508 4.2 4.307 4.2 7.304v120.727c.001 4.837-3.934 8.772-8.771 8.772zm-88.46-183.965c-2.597 0-5.193.674-7.509 2.021l-83.51 48.598c-1.364.794-2.212 2.269-2.212 3.847v120.727c0 2.632 2.141 4.772 4.772 4.772h176.918c2.631 0 4.772-2.141 4.772-4.772v-120.727c0-1.578-.848-3.053-2.212-3.847l-83.51-48.598c-2.315-1.347-4.912-2.021-7.509-2.021z" fill="#3762cc"/><path d="m98.992 170.64c5.783 3.984 13.426 3.984 19.209 0l62.896-43.328v-94.521c0-5.523-4.477-10-10-10h-125c-5.523 0-10 4.477-10 10v94.521z" fill="#e0ebfc"/><path d="m118.201 170.639c-5.783 3.984-13.426 3.984-19.209 0l-5.141-3.542-80.486 55.446v3.386c0 3.74 3.032 6.772 6.772 6.772h176.919c3.74 0 6.772-3.032 6.772-6.772v-3.386l-80.486-55.446z" fill="#a4c9ff"/><path d="m197.056 234.701h-176.919c-4.837 0-8.772-3.935-8.772-8.771v-3.386c0-.658.324-1.273.865-1.647l80.486-55.446c.684-.469 1.586-.471 2.27 0l5.141 3.543c5.066 3.488 11.873 3.489 16.94-.001l5.14-3.541c.684-.471 1.586-.472 2.27-.001l80.486 55.446c.542.374.865.989.865 1.647v3.386c0 4.837-3.935 8.771-8.772 8.771zm-181.691-11.106v2.335c0 2.631 2.141 4.771 4.772 4.771h176.918c2.631 0 4.772-2.141 4.772-4.771v-2.335l-78.486-54.068-4.006 2.76v.001c-6.423 4.425-15.054 4.424-21.478 0l-4.007-2.761zm102.836-52.955h.01z" fill="#3762cc"/><g fill="#b9befc"><path d="m161.097 50.791h-105c-2.209 0-4-1.791-4-4s1.791-4 4-4h105c2.209 0 4 1.791 4 4s-1.791 4-4 4z"/><path d="m161.097 74.791h-105c-2.209 0-4-1.791-4-4s1.791-4 4-4h105c2.209 0 4 1.791 4 4s-1.791 4-4 4z"/><path d="m161.097 98.791h-105c-2.209 0-4-1.791-4-4s1.791-4 4-4h105c2.209 0 4 1.791 4 4s-1.791 4-4 4z"/><path d="m161.097 122.791h-105c-2.209 0-4-1.791-4-4s1.791-4 4-4h105c2.209 0 4 1.791 4 4s-1.791 4-4 4z"/></g><path d="m197.056 234.702h-176.919c-4.837 0-8.772-3.936-8.772-8.772v-114.278c0-.743.412-1.425 1.07-1.771.657-.346 1.452-.298 2.065.123l85.627 58.987c5.066 3.49 11.874 3.492 16.939 0l85.626-58.987c.612-.42 1.408-.469 2.065-.123.658.346 1.07 1.027 1.07 1.771v114.278c.001 4.837-3.934 8.772-8.771 8.772zm-181.691-119.243v110.471c0 2.632 2.141 4.772 4.772 4.772h176.918c2.631 0 4.772-2.141 4.772-4.772v-110.471l-82.492 56.828c-6.423 4.425-15.055 4.427-21.479-.001z" fill="#3762cc"/><circle cx="193.828" cy="182.849" fill="#f9a7a7" r="39.085"/><path d="m193.828 211.934c-16.038 0-29.085-13.048-29.085-29.085s13.047-29.085 29.085-29.085 29.085 13.048 29.085 29.085-13.048 29.085-29.085 29.085z" fill="#f9cfcf"/><path d="m193.828 223.934c-22.654 0-41.085-18.431-41.085-41.085s18.431-41.085 41.085-41.085c22.655 0 41.085 18.431 41.085 41.085s-18.431 41.085-41.085 41.085zm0-78.17c-20.449 0-37.085 16.637-37.085 37.085s16.636 37.085 37.085 37.085 37.085-16.637 37.085-37.085-16.636-37.085-37.085-37.085z" fill="#3762cc"/><path d="m192.043 184.873 1.418 25.332c.103 1.846 2.342 2.701 3.65 1.393l1.728-1.728c.836-.836 2.191-.836 3.026 0l22.712 22.712c.836.836 2.191.836 3.026 0l14.405-14.405c.836-.836.836-2.191 0-3.026l-22.712-22.712c-.836-.836-.836-2.191 0-3.026l1.728-1.728c1.308-1.308.453-3.546-1.393-3.65l-25.332-1.418c-1.274-.071-2.327.982-2.256 2.256z" fill="#6bdddd"/><path d="m226.09 235.209c-1.105 0-2.146-.431-2.927-1.213l-22.711-22.712c-.054-.054-.142-.054-.199.001l-1.728 1.728c-1.17 1.171-2.859 1.529-4.404.94-1.546-.591-2.564-1.984-2.656-3.637l-1.418-25.331c0-.001 0-.001 0-.001-.065-1.175.374-2.326 1.206-3.158.833-.833 1.989-1.27 3.159-1.206l25.332 1.418c1.653.093 3.046 1.111 3.636 2.657.59 1.547.23 3.234-.94 4.404l-1.728 1.728c-.046.047-.046.151 0 .198l22.711 22.712c.782.782 1.213 1.821 1.213 2.928 0 1.105-.431 2.145-1.213 2.927l-14.404 14.404c-.783.782-1.822 1.213-2.929 1.213zm-25.737-27.963c1.06 0 2.12.403 2.927 1.209l22.712 22.713c.046.046.15.048.198 0l14.405-14.404c.054-.055.054-.144 0-.198l-22.711-22.712c-.782-.782-1.213-1.821-1.213-2.928 0-1.105.431-2.145 1.213-2.927l1.728-1.728c.03-.03.064-.064.032-.149-.033-.085-.081-.088-.123-.09l-25.332-1.418c-.015.001-.063-.004-.107.041-.044.044-.042.089-.041.106l1.418 25.332c.002.044.005.09.089.122.086.035.119-.001.149-.031l1.729-1.729c.806-.806 1.866-1.209 2.927-1.209z" fill="#3762cc"/><path d="m108.597 175.605c-3.764 0-7.527-1.105-10.739-3.319v.001l-62.896-43.328c-.542-.374-.865-.989-.865-1.647v-94.521c0-6.617 5.383-12 12-12h125c6.617 0 12 5.383 12 12v94.521c0 .658-.324 1.273-.865 1.647l-62.896 43.328c-3.211 2.212-6.976 3.318-10.739 3.318zm-70.5-49.344 62.03 42.731c5.066 3.49 11.874 3.492 16.939 0l62.03-42.731v-93.47c0-4.411-3.589-8-8-8h-125c-4.411 0-8 3.589-8 8v93.47z" fill="#3762cc"/></svg>