<svg id="Livello_1" data-name="Livello 1" xmlns="http://www.w3.org/2000/svg" viewBox="0 0 84.997 80.443">
  <title>tree</title>
  <g>
    <path d="M65.235,51.5l3.742-4.568-.053.051,3.741-1.5L72.66,45.4l-3.85,4.075.07-.066-3.246,3.852,6.307,2.516-.063.3-4.084-1c-.234,1.345-.057,3.166-.866,4.255-.987,1.329-2.8,2.043-4.392,3.112-1.078-3.525-.377-5.565,2.292-7.755a5.282,5.282,0,0,0-4.884,1.935,10.779,10.779,0,0,1-2.705,2.613A3.312,3.312,0,0,0,55.394,62.7c.526,5.692-1.11,11.046-2.88,16.357a2.459,2.459,0,0,1-.583,1.06c-1.876,1.648-8.328,1.562-10.434-.262a60.91,60.91,0,0,0,4.37-6.209,91.229,91.229,0,0,0,4.073-9.077,1.73,1.73,0,0,0-1.477-2.44,16.746,16.746,0,0,0-5.233-.15c-6.226,1.091-12.408,2.432-18.622,3.6-2.638.5-5.263.465-7.347-.91,2.394-.127,5.138.176,7.592-.53,2.363-.681,5.063-.523,7.225-2.333H26.094l4.572-3.427-2.115-1.7c2.24-1.613,3.6-1.517,5.929.021a47.332,47.332,0,0,0,4.27,2.262l-.059-.065a11.715,11.715,0,0,0,1.94.224c1.49-.066,2.979-.346,4.464-.32a44.228,44.228,0,0,1,4.425.5c.409-3.827-2.314-10.275-4.786-11.118l.229,3.085c-2.866-.491-3.58-2.038-1.968-4.218l-4.217-1.275c.678,1.745,1.373,3.49,2.025,5.252.137.371.3.989.127,1.176A30.938,30.938,0,0,1,36.9,56a2.413,2.413,0,0,1-2.3-.489,2.516,2.516,0,0,1-.05-2.346,3.388,3.388,0,0,0,.277-2.787,22.593,22.593,0,0,1,.1-4.9h-7.24l1.405,4c-2.787-.16-3.8-1.3-3.6-3.687-5.994-.437-12.439.373-16.693-5.617H9.926c-.791-2.444.455-4.033,2.245-5.507,2.045,2.985,1.636,5.354-1.3,6.931l3.177,1.787c-1.309-5.727,3.222-7.218,8.266-7.776l-.065-.068c-.427,1.261-.882,2.514-1.274,3.786A5.62,5.62,0,0,1,16.357,43.6c2.7,1.3,11.07,1.432,14.739.377L29.1,37.736l.451-.2,1.318,2.258,3.467-2.822,5.137,4.058c-2.169,2.136-4.567,2.08-7.246,1.852a6.823,6.823,0,0,0,2,.927c3.376.344,6.766.563,10.166.828L40.46,36.919v2.306c-2.619-.05-3.473-1.229-2.373-3.181L33.632,35.03l.065-.414,5.823.452c-.629-1.753-1.14-3.347-1.768-4.893a7.248,7.248,0,0,0-6.681-4.854c-2.171-.145-4.338-.355-6.506-.536l.06.04-7.932-1.448.074-.388c2,.2,4,.471,6.006.568,2.032.1,4.072.021,6.733.021l-3.06-4.061,2.267.712-.053-.056c1.041,2.421,2.314,4.367,5.43,4.539,1.338.073,2.617,1.211,3.923,1.866.166-1.228.442-2.664.528-4.11.079-1.312,1.6-2.727-.634-4.181l2.018.368,4.405-6.979.44.251-1.445,2.681c3.056-1.766,5.517-1.159,7.908.841a5.8,5.8,0,0,1-6.139,2.244c-.841-.184-1.521-1.1-2.626-1.956l-1.923,5.58.062-.062L39.081,24.79l2.921.2.069.24-2.435.692c-.506,1.922,1.286,7.966,3.611,11.741.216-.9.365-1.647.58-2.378a11.364,11.364,0,0,1,.862-2.49c1.569-2.71,3.231-5.366,4.857-8.042l.052-.082,1.736-2.091-.28,1.621L54.2,25.345l4.911-6.537c-.108.428-.228.983-.39,1.527-.172.582-.384,1.152-.578,1.728l-.982.929L53.1,27.658l.067-.061a13.251,13.251,0,0,0-6.151,5.2l6.228-.628c-.219,2.859-2.007,3.767-3.784,4.529-1.293.554-2.565.309-3.7-1.2-.153.848-.643,1.839-.361,2.5.263.617,1.332.915,2.078,1.29a5.762,5.762,0,0,0,1.186.314c-.09.3-.17.85-.272.855a3.011,3.011,0,0,1-1.326-.23,11.954,11.954,0,0,1-1.574-1.093c.975,5.668,3.636,10.1,6.641,14.411A44.762,44.762,0,0,1,54.563,58c6.352-1.854,7.665-12.129,4.5-18.863l1.415,1.1c.227-2.338.276-4.626.707-6.841.571-2.933.933-6.08,4.08-7.692l-.043-.041c-1.012,2.083-2.071,4.145-3.009,6.261a11.938,11.938,0,0,0-.492,2.515l3.321-.978.2.433a17.981,17.981,0,0,1-2.058.969,2.038,2.038,0,0,0-1.62,2.393c.221,2.706.415,5.422.418,8.134,0,2.5-.259,4.993-.43,7.926l3.751-1.888ZM52.352,26.307c-2.84-.472-3.279-.178-3.517,2.17Z" transform="translate(-0.693 -0.846)"/>
    <path d="M57.157,22.992l.982-.929c1.487-.892,2.977-1.55,4.783-.807,1.634.672,2.026-.4,1.962-1.81l1.17.155c.344-1.41.588-2.7.985-3.952.374-1.172,1.151-1.146,1.725-.2.683,1.127,1.171,2.372,1.743,3.566l-.335.451-2.024-.623a10.635,10.635,0,0,1-.44,1.96,5.028,5.028,0,0,1-2.589,2.74c-1.882,1.011-3.169,3.128-4.852,4.921-.177-.285-.451-.774-.771-1.231-.543-.776-1.183-1.492-1.655-2.307A10.8,10.8,0,0,1,57.157,22.992Z" transform="translate(-0.693 -0.846)"/>
    <path d="M22.845,48.5c1.669.25,1.669.25,4.914,4.158L25.164,51.4l1.66,2.434-.172.435-3.406-1.224a19.228,19.228,0,0,1-2.95,2.284,2.6,2.6,0,0,1-2.353-.043,2.394,2.394,0,0,1-.4-2.311,13.765,13.765,0,0,1,2.812-2.683C21.036,49.715,21.806,49.24,22.845,48.5Z" transform="translate(-0.693 -0.846)"/>
    <path d="M68.81,49.477c4.037-1.691,6.087-1.134,9.147,2.822-1.6.875-3.185,1.8-4.828,2.589a2.053,2.053,0,0,1-1.563-.043c-1.183-.561-2.865-4.13-2.684-5.435Z" transform="translate(-0.693 -0.846)"/>
    <path d="M9.65,50.024A8.439,8.439,0,0,1,15.5,54.3c.466.761.025,2.484-.574,3.391-.867,1.312-2.28.85-3.413.042C8.739,55.757,9.761,52.922,9.65,50.024Z" transform="translate(-0.693 -0.846)"/>
    <path d="M32.586,71.594c-2.765.7-5.957-.5-7.014-2.639-.929-1.88-.1-3.239,2-3.274C30.435,65.634,32.539,68.114,32.586,71.594Z" transform="translate(-0.693 -0.846)"/>
    <path d="M14.828,60.526a4.494,4.494,0,0,1-4.111,4.459A4.388,4.388,0,0,1,9.1,64.9c-1.165-.395-2.287-.917-3.427-1.387,1.009-.931,1.874-2.185,3.062-2.714,1.653-.737,3.6-1.6,5.232.321C13.981,61.146,14.45,60.789,14.828,60.526Z" transform="translate(-0.693 -0.846)"/>
    <path d="M10.266,18.46c-3.189.187-6.1-2.958-5.359-5.85A1.538,1.538,0,0,1,6.278,12,14.775,14.775,0,0,1,9.914,13.74c1.062.756,1.912,1.8.73,3.248C10.35,17.346,10.382,17.97,10.266,18.46Z" transform="translate(-0.693 -0.846)"/>
    <path d="M18.587,7.979c2.08,1.372,4.348,2.049,4.48,4.534.055,1.039-.71,2.122-1.1,3.184-1.076-.419-2.457-.553-3.166-1.314C17.1,12.566,18.235,10.443,18.587,7.979Z" transform="translate(-0.693 -0.846)"/>
    <path d="M57.233,5.651c-1.652,2.371-3.419,3.994-6.195,3.5A2.967,2.967,0,0,1,49.05,7.517a2.675,2.675,0,0,1,1.04-2.156C52.38,3.612,54.673,4.628,57.233,5.651Z" transform="translate(-0.693 -0.846)"/>
    <path d="M17.106,73a7.35,7.35,0,0,1,2.064-5.637c1.3-1.3,3.017-1.457,3.944-.432a2.812,2.812,0,0,1-.815,3.931A36.433,36.433,0,0,1,17.106,73Z" transform="translate(-0.693 -0.846)"/>
    <path d="M53.307,40.053c.759,3.1-.162,5.8-2.19,6.472a2.652,2.652,0,0,1-2.2-.138,2.856,2.856,0,0,1-.64-2.329C48.881,41.572,50.885,40.642,53.307,40.053Z" transform="translate(-0.693 -0.846)"/>
    <path d="M36.076,34.1l-.991-1.54c-1.466.158-3.078.843-3.95.314-1.564-.95-1.177-3.89.649-6.392l4.976,5.6Z" transform="translate(-0.693 -0.846)"/>
    <path d="M66.734,9.483c-.546,2.434-1.132,4.679-3.662,5.5a2.658,2.658,0,0,1-2.292-.359,2.752,2.752,0,0,1-.3-2.314C61.126,10.241,63.638,9.13,66.734,9.483Z" transform="translate(-0.693 -0.846)"/>
    <path d="M44.278.846a5.114,5.114,0,0,1,3.764,4.488A2.829,2.829,0,0,1,46.926,7.78a3.343,3.343,0,0,1-2.82-.6C42.605,5.918,42.793,3.024,44.278.846Z" transform="translate(-0.693 -0.846)"/>
    <path d="M80.2,61.048c-2.228.249-4.385.131-6.108-1.355a2.977,2.977,0,0,1-.706-2.607c.173-.542,1.5-1.021,2.3-1C77.989,56.142,79.655,58.033,80.2,61.048Z" transform="translate(-0.693 -0.846)"/>
    <path d="M85.69,44.46c-2.242,1.1-4.311,2.222-6.641.976a2.583,2.583,0,0,1-1.279-1.957,2.824,2.824,0,0,1,1.691-1.7C81.525,41,84.3,42.206,85.69,44.46Z" transform="translate(-0.693 -0.846)"/>
    <path d="M77.694,15.145a5.586,5.586,0,0,1-2.79,5.14c-.843.494-2.073.329-3.127.463.029-1.081-.309-2.365.158-3.2C73.131,15.4,75.342,15.172,77.694,15.145Z" transform="translate(-0.693 -0.846)"/>
    <path d="M43.782,69.6a28.144,28.144,0,0,1-4.74-2.452,3.056,3.056,0,0,1-.864-2.817,2.391,2.391,0,0,1,3.372-.861c2.276,1.241,2.376,3.411,2.751,5.488Z" transform="translate(-0.693 -0.846)"/>
    <path d="M17.13,30.835c-3.017-1.507-4.109-3.1-3.9-5.129.118-1.14.413-2.084,1.88-2.167A2.027,2.027,0,0,1,17.52,25.43,39.112,39.112,0,0,1,17.13,30.835Z" transform="translate(-0.693 -0.846)"/>
    <path d="M38.511,20.732c-1.22,1.838-2.609,3.255-4.937,3.17a1.617,1.617,0,0,1-1.457-2.534C33.521,18.965,36.386,18.592,38.511,20.732Z" transform="translate(-0.693 -0.846)"/>
    <path d="M53.1,27.658c2.421-.935,4.23.358,6.1,1.574-2,2.53-4.486,3.193-6.236,1.648-1.262-1.114-.8-2.238.2-3.28Z" transform="translate(-0.693 -0.846)"/>
    <path d="M31.191,47.031c1.593,1.311,2.634,2.915,2.148,5.026A2.942,2.942,0,0,1,31.7,54c-.518.14-1.556-.7-1.983-1.347C28.685,51.082,29.364,48.721,31.191,47.031Z" transform="translate(-0.693 -0.846)"/>
    <path d="M24.565,24.785a18.861,18.861,0,0,1,2.959,1.683,3.647,3.647,0,0,1,1.347,2.146c.07.712-.592,2.121-.951,2.127a4.428,4.428,0,0,1-2.684-.986,3.581,3.581,0,0,1-.608-4.928Z" transform="translate(-0.693 -0.846)"/>
    <path d="M7.643,48.007a24.7,24.7,0,0,1,4-3.1c.651-.332,1.853.416,2.8.673-.328.861-.423,1.975-1.03,2.532-1.569,1.441-3.506.924-5.337.684Z" transform="translate(-0.693 -0.846)"/>
    <path d="M28.713,20.229c-.556-2.889.277-4.682,3.108-6.093a25.528,25.528,0,0,1,.547,4.408c-.114,2.4-1.673,3.016-3.706,1.632Z" transform="translate(-0.693 -0.846)"/>
    <path d="M59.237,66.02c-2.564-1.579-3.441-3.038-2.71-4.732.275-.638,1.055-1.482,1.6-1.476a2.779,2.779,0,0,1,2.017,1.25C61.118,62.812,60.386,64.428,59.237,66.02Z" transform="translate(-0.693 -0.846)"/>
    <path d="M22.309,35.615l-2.57-4.473c3.528-.876,5.971,1,5.633,4-.036.32-.776.759-1.213.789a7.135,7.135,0,0,1-1.916-.385Z" transform="translate(-0.693 -0.846)"/>
    <path d="M.791,37.492a28.806,28.806,0,0,1,5.021-.168c.612.077,1.081,1.293,1.616,1.99-.7.512-1.354,1.386-2.1,1.466A4.733,4.733,0,0,1,.693,38.289Z" transform="translate(-0.693 -0.846)"/>
    <path d="M16.969,16.714c-.16.652-.139,1.451-.526,1.906a2.851,2.851,0,0,1-1.919,1.053c-.51-.019-1.192-.8-1.439-1.392-.517-1.239.6-3.8,1.89-4.323a1.637,1.637,0,0,1,1.472.583A7.375,7.375,0,0,1,16.969,16.714Z" transform="translate(-0.693 -0.846)"/>
    <path d="M68.977,46.928c-1.188.219-2.4.679-3-1.021-.618-1.737.221-3.58,2.507-5.011,1.52,1.938,1.14,4,.444,6.083Z" transform="translate(-0.693 -0.846)"/>
    <path d="M26.917,55.325c.589,1.784,1.087,3.465-.278,4.918-.5.533-1.529,1.239-1.925,1.049A2.777,2.777,0,0,1,23.5,59.3C23.317,57.412,24.612,56.007,26.917,55.325Z" transform="translate(-0.693 -0.846)"/>
    <path d="M32.659,10.27l1.166-2.46c.782.547,1.566,1.094,2.345,1.645a.274.274,0,0,1,.111.168,18.116,18.116,0,0,1,.27,3.268c-.018.254-1.191.756-1.616.59A3.148,3.148,0,0,1,32.659,10.27Z" transform="translate(-0.693 -0.846)"/>
    <path d="M75.7,39.89c-.265,2.888-1.655,4.845-3.12,4.477a2.436,2.436,0,0,1-1.419-1.739c-.138-1.421,2.542-3.938,3.758-3.659C75.311,39.059,75.57,39.727,75.7,39.89Z" transform="translate(-0.693 -0.846)"/>
    <path d="M21.514,17.3c.225,1.985-1.086,4.392-2.633,4.858a2.193,2.193,0,0,1-1.816-.227,2.1,2.1,0,0,1-.394-1.8C17.367,17.812,19.477,17.757,21.514,17.3Z" transform="translate(-0.693 -0.846)"/>
    <path d="M55.36,13.96a18.053,18.053,0,0,1,2.7,3.514c.253.557-.528,1.823-1.164,2.424-.245.232-1.909-.344-2.03-.794a30.121,30.121,0,0,1-.585-4.745Z" transform="translate(-0.693 -0.846)"/>
    <path d="M71.209,26.215a3.653,3.653,0,0,1-2.235,4.54,2.141,2.141,0,0,1-1.857-.08,2.246,2.246,0,0,1-.386-1.813C67.047,27.086,68.586,26.213,71.209,26.215Z" transform="translate(-0.693 -0.846)"/>
    <path d="M55.546,49.752c1.942,1.332,1.679,3.417,1.686,5.33,0,.3-1.063.777-1.675.854a1.783,1.783,0,0,1-1.265-.775C53.253,53.723,53.8,51.458,55.546,49.752Z" transform="translate(-0.693 -0.846)"/>
    <path d="M44.489,31.7c-2.123-.711-3.81-1.54-3.885-3.834a2.057,2.057,0,0,1,.791-1.635,2.173,2.173,0,0,1,1.847.269C45.012,27.761,44.791,29.611,44.489,31.7Z" transform="translate(-0.693 -0.846)"/>
    <path d="M25.056,15.9l-.745.938c-.2-.222-.408-.342-.456-.508A4.115,4.115,0,0,1,26.406,11.6a2.134,2.134,0,0,1,1.383.565,32.518,32.518,0,0,1-1.164,4.049A11.481,11.481,0,0,1,25.056,15.9Z" transform="translate(-0.693 -0.846)"/>
    <path d="M49.6,24.672l-.052.082c-3.489-.278-4.408-2.646-2.26-6.035C49.561,20.139,49.892,22.28,49.6,24.672Z" transform="translate(-0.693 -0.846)"/>
    <path d="M42.288,6.52l1.166,4.672-.838.291-.985-1.81L41.362,12.5c-2.629-1.815-2.669-2.332-.508-5.6l.523,1.276L41.651,6.6Z" transform="translate(-0.693 -0.846)"/>
    <path d="M74.55,24.937a42.737,42.737,0,0,1-4.3-.577c-.35-.079-.735-.9-.723-1.372.008-.315.645-.772,1.076-.891,1.95-.54,3.1.621,4.152,1.924Z" transform="translate(-0.693 -0.846)"/>
    <path d="M59.476,48.177c-.69.344-1.405,1.015-2.064.964-1.385-.106-2.11-1.515-2.316-4.52l4.428,2.731Z" transform="translate(-0.693 -0.846)"/>
    <path d="M6.125,29.248c-.228,2.372,1.547,4.7.324,7.231C4.146,34.79,4.048,32.816,6.125,29.248Z" transform="translate(-0.693 -0.846)"/>
    <path d="M72.66,45.4l.005.075a5.106,5.106,0,0,1,5.685,1.732c-2.036,1.595-3.366,1.656-5.013.06a14.3,14.3,0,0,1,1.787-.215,15.6,15.6,0,0,1,1.933.278Z" transform="translate(-0.693 -0.846)"/>
    <path d="M47.43,54.6l-.3,2.7c-.85-.274-1.852-.323-2.4-.847a9,9,0,0,1-1.356-2.507c1.018.006,2.041-.041,3.052.049C46.779,54.021,47.1,54.389,47.43,54.6Z" transform="translate(-0.693 -0.846)"/>
    <path d="M65.308,51.428c-1.056,0-2.254.35-2.608-1.211-.314-1.385.26-2.28,2.251-3.362,1.488,1.462,1.012,3.044.284,4.641Z" transform="translate(-0.693 -0.846)"/>
    <path d="M38.75,58.958c-.112-.836-.6-2.167-.266-2.416a18.2,18.2,0,0,1,3.771-1.727c-.087,2.983-.725,3.611-3.567,4.074Z" transform="translate(-0.693 -0.846)"/>
    <path d="M17.75,51.186c-1.923-1.22-2.337-2.538-1.99-4.013a2.079,2.079,0,0,1,1.33-1.262c.329-.08,1.238.679,1.231,1.05A33.719,33.719,0,0,1,17.75,51.186Z" transform="translate(-0.693 -0.846)"/>
    <path d="M16.254,65.653l-1.768.786,2.181.482a3.4,3.4,0,0,1-4.977.359C12.833,65.309,14.263,64.712,16.254,65.653Z" transform="translate(-0.693 -0.846)"/>
    <path d="M24.1,38.036a22.94,22.94,0,0,1,3.767.069c.471.08.811.94,1.211,1.444-.515.377-1.127,1.154-1.526,1.057a25.63,25.63,0,0,1-3.678-1.452Z" transform="translate(-0.693 -0.846)"/>
    <path d="M67.908,34.924c-.5-2.213,1.437-1.064,2.2-1.7l-2.857-.619c1.727-1.27,3.914-1.146,4.685.2.305.53.771,1.69-.72,1.786-1.119.072-2.234.185-3.351.28Z" transform="translate(-0.693 -0.846)"/>
    <path d="M21.031,59.063,17.52,61.616l-.365-.346L17.648,60l-1.307-.543c.279-.409.468-1.014.853-1.19C18.425,57.708,19.734,57.263,21.031,59.063Z" transform="translate(-0.693 -0.846)"/>
    <path d="M66.438,39.912c-.4,1.335-.472,2.42-1.027,3.123a3.934,3.934,0,0,1-2.252.863c-.2.039-.837-.708-.764-.925a4.529,4.529,0,0,1,1.168-2.114A10.012,10.012,0,0,1,66.438,39.912Z" transform="translate(-0.693 -0.846)"/>
    <path d="M7.2,29.04l2.681,4.384L7.645,35.437,6.564,29.264Z" transform="translate(-0.693 -0.846)"/>
    <path d="M36.708,64.618c.8,3.111-1.667,3.227-3.693,4.038.218-1.015.407-2.039.721-3.022a15.484,15.484,0,0,1,1.788.353Z" transform="translate(-0.693 -0.846)"/>
    <path d="M53.966,34.1a17.7,17.7,0,0,1,2.891,1.789c.325.291.095,1.2.118,1.83-.684-.018-1.663.241-1.991-.11A14.1,14.1,0,0,1,53.3,34.774Z" transform="translate(-0.693 -0.846)"/>
    <path d="M65.023,28.475c.724,1.6,1.265,2.968-.192,4.032A1.893,1.893,0,0,1,63.1,31.92C62.37,30.226,63.615,29.411,65.023,28.475Z" transform="translate(-0.693 -0.846)"/>
    <path d="M4.666,42.625c1.629-.67,3.016-1.785,3.411.879.046.308.872.5,1.485.825C7.339,45.491,6.113,44.257,4.666,42.625Z" transform="translate(-0.693 -0.846)"/>
    <path d="M40.545,21.317l2.492-1.967.593.1c-.051.955.192,2.09-.247,2.809-.346.566-1.533.619-2.479.946-.082-.556-.187-1.256-.294-1.952Z" transform="translate(-0.693 -0.846)"/>
    <path d="M69.241,62.227l-.308-3.907.7-.064.263,2.512.41.052.529-3.627C72.315,58.983,71.929,60.607,69.241,62.227Z" transform="translate(-0.693 -0.846)"/>
    <path d="M11.552,22.007l2.021,2.118-4.23.846-.36-.656Z" transform="translate(-0.693 -0.846)"/>
    <path d="M53.583,47.739c.239,1.753.171,3-1.434,3.417a1.394,1.394,0,0,1-1.187-.673C50.5,48.484,52.312,48.6,53.583,47.739Z" transform="translate(-0.693 -0.846)"/>
    <path d="M8.028,19.961a9.792,9.792,0,0,1,2.54-.713c.478-.009.968.679,1.452,1.053-.532.406-1.059,1.132-1.6,1.142a7.405,7.405,0,0,1-2.361-.772Z" transform="translate(-0.693 -0.846)"/>
    <path d="M28.532,34.3l3.243-.041a10.236,10.236,0,0,1-.066,1.4c-1.057.08-2.122.051-3.185.046Z" transform="translate(-0.693 -0.846)"/>
    <path d="M20.029,62.411a13.819,13.819,0,0,1,2.737-.3c.407.03.767.685,1.149,1.056-.431.329-.9.971-1.286.924a14.23,14.23,0,0,1-2.715-.851Z" transform="translate(-0.693 -0.846)"/>
    <path d="M24.274,41l-.96,1.922L20.467,42.4l-.246-.421,3.609-1.614Z" transform="translate(-0.693 -0.846)"/>
    <path d="M22.693,22.2c-1.013-1.266-.992-2.376.128-3.315A1.245,1.245,0,0,1,24,19.144C24.73,20.525,24.01,21.428,22.693,22.2Z" transform="translate(-0.693 -0.846)"/>
    <path d="M67.868,34.875v2.14c-.575-.115-1.3-.046-1.613-.372a7.213,7.213,0,0,1-.987-1.926c.646-.071,1.291-.183,1.938-.191.229,0,.46.25.7.392C67.908,34.924,67.868,34.875,67.868,34.875Z" transform="translate(-0.693 -0.846)"/>
    <path d="M19.662,29.17l-1.043-3.652.757-.212C19.542,26.441,21.887,26.991,19.662,29.17Z" transform="translate(-0.693 -0.846)"/>
    <path d="M53.16,23.277l.8-3.364c2.418,1.787.269,2.526-.1,3.557Z" transform="translate(-0.693 -0.846)"/>
    <path d="M65.267,25.7c.986-1.889.986-1.889,3.489-.545a1.614,1.614,0,0,1-2.482.651,2.964,2.964,0,0,0-1.05-.147Z" transform="translate(-0.693 -0.846)"/>
    <path d="M33.363,14.985l3.7.573c-1.794,1.609-2.163,1.563-3.822.018Z" transform="translate(-0.693 -0.846)"/>
    <path d="M58.214,37.545l.843-3.034C60.654,36.3,60.522,36.765,58.214,37.545Z" transform="translate(-0.693 -0.846)"/>
    <path d="M60.668,19.566c1.155-.4.095-2.847,2.862-2.159l-2.2,2.675Z" transform="translate(-0.693 -0.846)"/>
    <path d="M58.586,41.078c-1.694.1-3.076.38-3.49-2.236Z" transform="translate(-0.693 -0.846)"/>
  </g>
</svg>
